<svg width="33" height="32" viewBox="0 0 33 32" fill="none" xmlns="http://www.w3.org/2000/svg">
<rect x="0.849976" width="32" height="32" rx="16" fill="black" fill-opacity="0.6"/>
<path d="M16.0169 15.8668C16.0169 16.2534 16.3303 16.5668 16.7169 16.5668C17.1035 16.5668 17.4169 16.2534 17.4169 15.8668C17.4169 15.4802 17.1035 15.1668 16.7169 15.1668C16.3303 15.1668 16.0169 15.4802 16.0169 15.8668Z" fill="white" stroke="white" stroke-width="1.16667" stroke-linecap="round" stroke-linejoin="round"/>
<path d="M21.8499 15.8668C21.8499 16.2534 22.1633 16.5668 22.5499 16.5668C22.9365 16.5668 23.2499 16.2534 23.2499 15.8668C23.2499 15.4802 22.9365 15.1668 22.5499 15.1668C22.1633 15.1668 21.8499 15.4802 21.8499 15.8668Z" fill="white" stroke="white" stroke-width="1.16667" stroke-linecap="round" stroke-linejoin="round"/>
<path d="M10.1834 15.8668C10.1834 16.2534 10.4968 16.5668 10.8834 16.5668C11.27 16.5668 11.5834 16.2534 11.5834 15.8668C11.5834 15.4802 11.27 15.1668 10.8834 15.1668C10.4968 15.1668 10.1834 15.4802 10.1834 15.8668Z" fill="white" stroke="white" stroke-width="1.16667" stroke-linecap="round" stroke-linejoin="round"/>
</svg>
